<svg xmlns="http://www.w3.org/2000/svg" xmlns:xlink="http://www.w3.org/1999/xlink" width="100" height="100" viewBox="0 0 100 100"><rect width="100%" height="100%" fill="#a235b5"></rect><g transform="translate(50 50) scale(0.69 0.69) rotate(0) translate(-50 -50)" style="fill:#ffffff"><svg fill="#ffffff" xmlns:x="http://ns.adobe.com/Extensibility/1.0/" xmlns:i="http://ns.adobe.com/AdobeIllustrator/10.0/" xmlns:graph="http://ns.adobe.com/Graphs/1.0/" xmlns="http://www.w3.org/2000/svg" xmlns:xlink="http://www.w3.org/1999/xlink" version="1.1" x="0px" y="0px" viewBox="0 0 100 100" style="enable-background:new 0 0 100 100;" xml:space="preserve"><g><g i:extraneous="self"><g><path d="M76.6,32.7c-1.6-1.5-4.1-1.5-5.6,0.1c-1.5,1.6-1.5,4.1,0.1,5.6c2.6,2.5,4,5.8,4,9.4c0,3.6-1.4,6.9-4,9.4     c-1.6,1.5-1.6,4-0.1,5.6c0.8,0.8,1.8,1.2,2.9,1.2c1,0,2-0.4,2.7-1.1c4.2-4,6.4-9.4,6.4-15.1C83,42.1,80.7,36.7,76.6,32.7z"></path><path d="M85.7,21.4c-1.6-1.5-4.1-1.3-5.6,0.3c-1.5,1.6-1.3,4.1,0.3,5.6c5.9,5.2,9.2,12.7,9.2,20.6c0,7.8-3.4,15.3-9.2,20.6     c-1.6,1.5-1.8,4-0.3,5.6c0.8,0.9,1.9,1.3,2.9,1.3c0.9,0,1.9-0.3,2.6-1c7.5-6.7,11.8-16.4,11.8-26.5     C97.5,37.8,93.2,28.1,85.7,21.4z"></path><path d="M60.4,15.9c-0.8-0.4-1.8-0.3-2.6,0.2l-24,18.1H9.7c-4,0-7.2,3.2-7.2,7.2v12.8c0,4,3.2,7.2,7.2,7.2h2.9l3.6,20.8     c0.2,1.2,1.2,2.1,2.4,2.1h9.6c0.7,0,1.4-0.3,1.9-0.9c0.5-0.6,0.7-1.3,0.5-2l-3.5-20h6.7l24,18.1c0.4,0.3,1,0.5,1.5,0.5     c0.4,0,0.8-0.1,1.1-0.3c0.8-0.4,1.4-1.3,1.4-2.2V18.1C61.7,17.2,61.2,16.4,60.4,15.9z"></path></g></g></g></svg></g></svg>