<svg xmlns="http://www.w3.org/2000/svg" xmlns:xlink="http://www.w3.org/1999/xlink" width="100" height="100" viewBox="0 0 100 100"><rect width="100%" height="100%" fill="#a235b5"></rect><g transform="translate(50 50) scale(0.69 0.69) rotate(0) translate(-50 -50)" style="fill:#ffffff"><svg fill="#ffffff" xmlns="http://www.w3.org/2000/svg" xmlns:xlink="http://www.w3.org/1999/xlink" version="1.1" x="0px" y="0px" viewBox="0 0 100 100" enable-background="new 0 0 100 100" xml:space="preserve"><g><path d="M77.468,14.441c-0.32,0.043-0.648,0.093-0.977,0.144c-0.121,0.019-0.238,0.034-0.359,0.053   c-0.382,0.061-0.774,0.129-1.17,0.2c-0.076,0.014-0.148,0.025-0.225,0.039c-0.477,0.087-0.965,0.18-1.465,0.281   c-0.005,0.001-0.011,0.002-0.016,0.003c-0.002,0-0.005,0.001-0.007,0.001l0,0c-0.002,0-0.004,0.001-0.006,0.001   c-0.114,0.023-0.229,0.049-0.344,0.074l-0.044,0.01l-0.37,0.08c0,0,0,0-0.002,0.001c-0.014,0.003-0.028,0.007-0.042,0.009   c-0.621,0.132-1.254,0.274-1.9,0.428c-0.017,0.004-0.034,0.008-0.05,0.012c-0.65,0.155-1.314,0.321-1.994,0.499   c-0.018,0.005-0.037,0.01-0.055,0.015c-0.681,0.179-1.377,0.369-2.091,0.571c-0.018,0.005-0.036,0.01-0.054,0.015   c-0.721,0.205-1.46,0.422-2.221,0.653c-2.921,0.889-6.033,1.96-9.249,3.185c-5.923,2.255-11.854,4.871-17.628,7.777   c-1.916,0.964-3.829,1.968-5.686,2.985l-0.309,0.169l-2.642-8.557L15.745,48.294l-1.528,3.005l9.645-3.005l20.569-6.408   l-7.404-3.741l0.393-0.276c6.238-4.375,13.053-8.535,19.708-12.029c0.717-0.377,1.429-0.744,2.134-1.101   c0.706-0.357,1.405-0.704,2.097-1.041c1.459-0.71,2.886-1.374,4.269-1.984c3.2-1.409,5.979-2.496,8.499-3.324   c0.548-0.182,1.094-0.348,1.639-0.514c0.003-0.001,0.006-0.002,0.008-0.003c0.103-0.031,0.207-0.066,0.31-0.097   c0.06-0.018,0.121-0.039,0.182-0.057l0.15-0.044c0.001,0.001,0.001,0.001,0.002,0.002c0,0,0.001,0,0.002-0.001   c0.41-0.12,0.819-0.236,1.223-0.343c0.082-0.022,0.162-0.04,0.244-0.062c0.352-0.092,0.702-0.18,1.049-0.262   c0.152-0.036,0.301-0.068,0.452-0.102c0.274-0.062,0.547-0.123,0.817-0.178c0.163-0.034,0.324-0.064,0.486-0.096   c0.149-0.029,0.296-0.055,0.443-0.082c0.115-0.021,0.232-0.044,0.347-0.064c0.068-0.012,0.138-0.027,0.206-0.038l0.143-0.024   c0.002-0.002,0.002-0.002,0.002-0.002l0.11-0.02c0.131-0.025,0.263-0.049,0.393-0.069c2.401-0.36,4.51-0.38,6.26-0.057   c1.548,0.321,2.777,0.905,3.656,1.736c1.527,1.391,1.911,3.359,2.004,4.408c0.172,1.526,0.03,2.916-0.115,3.963   c0.321-1.159,0.622-2.448,0.652-3.997c0.015-0.299-0.01-0.604-0.035-0.926l-0.057-0.524c-0.058-0.362-0.117-0.735-0.235-1.099   c-0.281-0.98-0.765-1.877-1.403-2.604c-0.657-0.752-1.566-1.406-2.628-1.89c-0.606-0.276-1.274-0.505-2.043-0.697l-0.193-0.049   c-0.068-0.017-0.134-0.031-0.2-0.046l-0.139-0.031c-1.435-0.329-3.023-0.489-4.851-0.489c-0.288,0-0.575,0.004-0.864,0.012   c-0.848,0.023-1.743,0.078-2.668,0.165c0,0,0,0-0.019-0.003l-0.386,0.042l-0.259,0.028c-0.04,0.004-0.082,0.01-0.121,0.015   c-0.001,0-0.001-0.001-0.002-0.001c-0.001,0-0.002,0-0.002,0c-0.248,0.028-0.501,0.062-0.752,0.093   C77.777,14.403,77.625,14.42,77.468,14.441z"></path></g><g><path d="M21.824,82.038c0.32-0.043,0.648-0.093,0.977-0.144c0.121-0.019,0.238-0.034,0.36-0.053c0.382-0.061,0.774-0.129,1.17-0.2   c0.076-0.014,0.148-0.025,0.225-0.039c0.477-0.087,0.965-0.18,1.465-0.281c0.005-0.001,0.011-0.002,0.016-0.003   c0.002,0,0.005-0.001,0.007-0.001l0,0c0.002,0,0.004-0.001,0.006-0.001c0.115-0.023,0.229-0.049,0.344-0.074l0.044-0.01l0.37-0.08   c0,0,0,0,0.002-0.001c0.014-0.003,0.028-0.007,0.042-0.009c0.621-0.132,1.254-0.274,1.9-0.428c0.017-0.004,0.034-0.008,0.05-0.012   c0.65-0.155,1.314-0.321,1.994-0.499c0.018-0.005,0.037-0.01,0.055-0.015c0.681-0.179,1.377-0.369,2.091-0.571   c0.018-0.005,0.036-0.01,0.054-0.015c0.721-0.205,1.46-0.422,2.221-0.653c2.921-0.889,6.033-1.96,9.249-3.185   c5.923-2.255,11.854-4.871,17.628-7.777c1.916-0.964,3.829-1.968,5.686-2.985l0.309-0.169l2.642,8.557l12.815-25.204l1.528-3.005   l-9.645,3.005l-20.569,6.408l7.404,3.741l-0.393,0.276c-6.238,4.375-13.053,8.535-19.708,12.029   c-0.717,0.377-1.429,0.744-2.134,1.101c-0.706,0.357-1.405,0.704-2.097,1.041c-1.459,0.71-2.886,1.374-4.269,1.984   c-3.2,1.409-5.979,2.496-8.499,3.324c-0.548,0.182-1.094,0.348-1.639,0.514c-0.003,0.001-0.006,0.002-0.009,0.003   c-0.103,0.031-0.207,0.066-0.31,0.097c-0.06,0.018-0.121,0.039-0.182,0.057l-0.15,0.044c-0.001-0.001-0.001-0.001-0.001-0.001   c-0.001,0-0.002,0-0.003,0c-0.41,0.12-0.819,0.236-1.223,0.343c-0.082,0.022-0.162,0.04-0.244,0.062   c-0.352,0.092-0.702,0.18-1.048,0.262c-0.152,0.036-0.301,0.068-0.452,0.102c-0.274,0.062-0.547,0.123-0.817,0.178   c-0.163,0.034-0.324,0.064-0.486,0.096c-0.149,0.029-0.296,0.055-0.443,0.082c-0.115,0.021-0.232,0.044-0.347,0.064   c-0.068,0.012-0.138,0.027-0.206,0.038l-0.143,0.024c-0.002,0.002-0.002,0.002-0.002,0.002l-0.11,0.02   c-0.131,0.025-0.263,0.049-0.393,0.069c-2.401,0.36-4.51,0.38-6.26,0.057c-1.548-0.321-2.777-0.905-3.656-1.736   c-1.527-1.391-1.911-3.359-2.004-4.408c-0.172-1.526-0.03-2.916,0.115-3.963c-0.321,1.159-0.622,2.448-0.652,3.997   c-0.015,0.299,0.01,0.604,0.035,0.926l0.057,0.524c0.058,0.362,0.117,0.735,0.235,1.099c0.281,0.98,0.765,1.877,1.403,2.604   c0.657,0.752,1.566,1.406,2.628,1.89c0.606,0.276,1.274,0.505,2.043,0.697l0.193,0.049c0.068,0.017,0.134,0.031,0.2,0.046   l0.139,0.031c1.435,0.329,3.023,0.489,4.851,0.489c0.288,0,0.575-0.004,0.864-0.012c0.848-0.023,1.743-0.078,2.668-0.165   c0,0,0,0,0.019,0.003l0.386-0.042l0.259-0.028c0.04-0.004,0.082-0.01,0.122-0.015c0.001,0,0.001,0.001,0.001,0.001   c0.002,0,0.003,0,0.004,0c0.247-0.027,0.5-0.062,0.751-0.093C21.515,82.076,21.667,82.06,21.824,82.038z"></path></g><path d="M79.462,18.504l-0.272,0.066l0.026,0.02l-0.28,0.07c0.026,0.026,0.053,0.052,0.079,0.078  c0.215,0.213,0.423,0.432,0.631,0.651l0.339,0.356c0.188,0.196,0.376,0.392,0.558,0.593c0.21,0.232,0.413,0.47,0.617,0.708  l0.288,0.336c0.179,0.208,0.357,0.416,0.529,0.627c0.188,0.23,0.371,0.469,0.554,0.707l0.289,0.375  c0.167,0.216,0.334,0.432,0.496,0.652c0.172,0.236,0.336,0.475,0.499,0.713l0.308,0.445c0.147,0.213,0.296,0.426,0.438,0.644  c0.161,0.247,0.314,0.497,0.467,0.748l0.276,0.448c0.136,0.219,0.271,0.438,0.401,0.662c0.154,0.265,0.298,0.531,0.442,0.797  l0.257,0.472c0.118,0.215,0.236,0.43,0.349,0.648c0.136,0.265,0.264,0.534,0.392,0.804l0.235,0.489  c0.107,0.222,0.215,0.444,0.315,0.668c0.125,0.277,0.241,0.56,0.357,0.842l0.213,0.51c0.093,0.218,0.185,0.437,0.271,0.658  c0.103,0.266,0.197,0.534,0.292,0.802l0.203,0.57c0.082,0.225,0.163,0.451,0.238,0.678c0.094,0.283,0.178,0.57,0.262,0.858  l0.177,0.589c0.064,0.213,0.13,0.426,0.188,0.641c0.081,0.302,0.153,0.604,0.225,0.907l0.139,0.574  c0.054,0.214,0.107,0.428,0.153,0.644c0.068,0.316,0.126,0.634,0.184,0.953l0.112,0.597c0.038,0.199,0.077,0.398,0.11,0.6  c0.053,0.332,0.095,0.665,0.137,0.997l0.085,0.64c0.025,0.18,0.051,0.36,0.07,0.541c0.045,0.423,0.075,0.845,0.104,1.268  l0.037,0.481c0.014,0.15,0.026,0.3,0.035,0.451c0.038,0.716,0.057,1.437,0.058,2.16c-0.031,22.965-18.737,41.646-41.699,41.646  c-0.528,0-1.055-0.01-1.58-0.029l-0.72-0.04c-0.285-0.014-0.57-0.027-0.854-0.049c-0.155-0.012-0.308-0.027-0.461-0.042l-0.425-0.04  c-0.225-0.02-0.451-0.04-0.676-0.064c-0.165-0.019-0.326-0.041-0.487-0.063l-0.491-0.065c-0.192-0.024-0.385-0.049-0.576-0.077  c-0.161-0.024-0.32-0.053-0.479-0.081l-0.494-0.084c-0.189-0.031-0.379-0.063-0.567-0.099c-0.164-0.031-0.325-0.065-0.487-0.101  l-0.485-0.102c-0.185-0.038-0.371-0.076-0.555-0.118c-0.167-0.038-0.331-0.08-0.496-0.122l-0.452-0.113  c-0.188-0.046-0.377-0.093-0.565-0.143c-0.174-0.047-0.348-0.099-0.521-0.149l-0.455-0.132c-0.175-0.05-0.349-0.1-0.522-0.154  c-0.177-0.055-0.354-0.114-0.531-0.175l-0.43-0.143c-0.172-0.056-0.343-0.111-0.514-0.171c-0.162-0.058-0.32-0.118-0.479-0.178  l-0.432-0.162c-0.184-0.067-0.369-0.136-0.551-0.208c-0.173-0.068-0.344-0.141-0.514-0.213L33.444,86.6  c-0.175-0.072-0.351-0.145-0.524-0.221c-0.155-0.068-0.309-0.141-0.462-0.212l-0.415-0.192c-0.181-0.082-0.362-0.165-0.541-0.251  c-0.151-0.074-0.296-0.149-0.442-0.225l-0.413-0.21c-0.182-0.091-0.364-0.183-0.544-0.279c-0.148-0.079-0.295-0.162-0.442-0.245  l-0.358-0.199c-0.19-0.104-0.38-0.21-0.569-0.319l-0.854-0.517c-0.166-0.101-0.332-0.201-0.496-0.305l-0.782-0.515  c-0.039-0.025-0.078-0.051-0.116-0.076c-0.053,0.011-0.106,0.022-0.16,0.033c-0.481,0.097-0.953,0.187-1.417,0.271l-0.417,0.073  c-0.276,0.049-0.551,0.097-0.82,0.141c7.494,5.536,16.629,8.561,25.973,8.561c24.052,0,43.667-19.568,43.725-43.621v-0.104  c-0.027-11.269-4.315-21.926-12.086-30.068C80.7,18.229,80.089,18.358,79.462,18.504z"></path><path d="M19.624,77.067l-0.309-0.324c-0.191-0.199-0.381-0.398-0.565-0.603c-0.202-0.222-0.397-0.451-0.593-0.68l-0.305-0.355  c-0.181-0.21-0.361-0.42-0.536-0.635c-0.181-0.222-0.354-0.447-0.528-0.674l-0.341-0.442c-0.159-0.205-0.317-0.41-0.47-0.619  c-0.178-0.245-0.348-0.491-0.517-0.738l-0.281-0.406c-0.151-0.218-0.303-0.436-0.447-0.657c-0.161-0.246-0.313-0.496-0.466-0.746  l-0.273-0.443c-0.138-0.222-0.275-0.443-0.406-0.67c-0.147-0.253-0.288-0.512-0.427-0.771l-0.261-0.479  c-0.122-0.22-0.243-0.44-0.357-0.664c-0.136-0.264-0.263-0.532-0.391-0.801l-0.234-0.487c-0.109-0.225-0.217-0.448-0.319-0.676  c-0.12-0.267-0.232-0.539-0.345-0.813l-0.222-0.532c-0.094-0.221-0.187-0.44-0.273-0.664c-0.109-0.281-0.21-0.566-0.31-0.853  l-0.189-0.529c-0.081-0.222-0.161-0.443-0.235-0.667c-0.093-0.284-0.178-0.571-0.261-0.857L9.59,59.707  c-0.067-0.218-0.133-0.436-0.193-0.656c-0.08-0.297-0.151-0.595-0.221-0.892l-0.144-0.595c-0.053-0.212-0.106-0.424-0.152-0.638  c-0.067-0.309-0.123-0.62-0.18-0.932l-0.112-0.6c-0.04-0.207-0.081-0.414-0.114-0.622c-0.055-0.338-0.098-0.68-0.141-1.022  L8.256,53.17c-0.027-0.189-0.054-0.38-0.074-0.571c-0.044-0.416-0.074-0.834-0.104-1.252L8.04,50.859  c-0.014-0.153-0.027-0.307-0.035-0.46c-0.039-0.717-0.058-1.437-0.059-2.16c0.032-22.965,18.738-41.646,41.7-41.646  c0.528,0,1.055,0.01,1.582,0.03l0.711,0.039c0.287,0.014,0.575,0.029,0.862,0.05c0.142,0.01,0.283,0.024,0.426,0.039l0.489,0.045  c0.216,0.019,0.432,0.038,0.646,0.063c0.163,0.019,0.325,0.041,0.486,0.063l0.504,0.066c0.188,0.024,0.376,0.048,0.563,0.076  c0.168,0.025,0.334,0.055,0.5,0.084l0.474,0.081c0.189,0.031,0.379,0.063,0.567,0.098c0.169,0.032,0.337,0.068,0.505,0.104  l0.472,0.099c0.184,0.038,0.368,0.075,0.55,0.117c0.176,0.041,0.349,0.084,0.521,0.129l0.469,0.117  c0.175,0.043,0.349,0.085,0.522,0.132c0.175,0.047,0.348,0.098,0.521,0.149l0.428,0.125c0.183,0.052,0.365,0.104,0.547,0.161  c0.168,0.052,0.335,0.108,0.503,0.165l0.452,0.15c0.175,0.057,0.35,0.115,0.523,0.176c0.163,0.057,0.322,0.118,0.482,0.179  l0.422,0.158c0.186,0.068,0.372,0.137,0.556,0.209c0.167,0.066,0.331,0.136,0.496,0.206l0.424,0.177  c0.174,0.072,0.349,0.144,0.521,0.219c0.153,0.067,0.304,0.138,0.454,0.208l0.449,0.208c0.173,0.079,0.346,0.158,0.517,0.242  c0.155,0.075,0.308,0.154,0.461,0.233l0.406,0.207c0.178,0.089,0.355,0.179,0.531,0.273c0.146,0.078,0.291,0.159,0.437,0.242  l0.379,0.211c0.187,0.103,0.373,0.206,0.557,0.313c0.149,0.087,0.299,0.179,0.448,0.271l0.352,0.214  c0.183,0.11,0.365,0.22,0.547,0.334c0.137,0.087,0.271,0.176,0.404,0.266l0.32,0.211c0.058,0.038,0.115,0.076,0.174,0.114  c0.053-0.011,0.106-0.022,0.16-0.033c0.48-0.097,0.952-0.188,1.418-0.272l0.415-0.073c0.276-0.048,0.551-0.096,0.819-0.14  C68.126,7.592,58.99,4.567,49.646,4.567c-24.052,0-43.667,19.568-43.725,43.621l0,0.149c0.039,11.252,4.326,21.891,12.086,30.022  c0.586-0.109,1.197-0.238,1.822-0.384l0.374-0.092c0.059-0.014,0.118-0.028,0.176-0.042c-0.034-0.033-0.067-0.066-0.101-0.1  C20.055,77.521,19.84,77.294,19.624,77.067z"></path></svg></g></svg>