<?xml version="1.0" encoding="utf-8"?>
<!-- Generator: Adobe Illustrator 25.2.1, SVG Export Plug-In . SVG Version: 6.00 Build 0)  -->
<svg version="1.1" id="Layer_3" xmlns="http://www.w3.org/2000/svg" xmlns:xlink="http://www.w3.org/1999/xlink" x="0px" y="0px"
	 viewBox="0 0 436.9 108.6" style="enable-background:new 0 0 436.9 108.6;" xml:space="preserve">
<style type="text/css">
	.st0{fill:#8CC63F;}
	.st1{fill:#FFC20E;}
	.st2{fill:#F15A24;}
	.st3{fill:#662D91;}
	.st4{fill:#00B1EB;}
	.st5{fill:#FFFFFF;}
</style>
<g>
	<rect x="13.2" y="16" class="st0" width="8.9" height="69.9"/>
	<rect x="26.4" class="st1" width="8.9" height="85.9"/>
	<rect x="39.7" y="16" class="st2" width="8.9" height="69.9"/>
	<rect x="52.9" y="35.9" class="st3" width="8.9" height="50"/>
	<rect y="35.9" class="st4" width="8.9" height="50"/>
</g>
<path class="st5" d="M115.2,82.7v0.8c-1.6,1.7-3.6,2.9-6.9,2.9c-3.3,0-5.7-2.1-6.4-6c-2.3,3.2-6.7,6.3-12.5,6.3
	c-6.8,0-11.8-4.1-11.8-10.9c0-7.9,6.8-13,18.1-13c1.9,0,4.3,0.2,6,0.4V56c0-7.3-2.6-11-8.5-11c-3.6,0-6.3,1.2-7.9,3.4
	c1.8,0.7,3.1,2.2,3.1,4.2c0,2.6-2,4.5-4.6,4.5c-2.6,0-4.5-2-4.5-4.7c0-5.6,6.6-9.4,14.4-9.4c11.3,0,15,5.8,15,13.3v21
	c0,4.1,1,5.4,5,5.4H115.2z M101.8,65.5c-1-0.2-2.2-0.3-3.5-0.3c-8.4,0-13,4-13,10c0,4.7,3.1,7.7,7.5,7.7c3.6,0,6.9-2.1,8.9-4.8V65.5
	z"/>
<path class="st5" d="M128.5,76.6c0,5.4,1,7.4,3.3,8.5v0.7H118v-0.7c2.3-1.1,3.4-3.1,3.4-8.5V53.8c0-4.4-2-5.8-3.6-6.6v-0.7l10.8-3.6
	v8.9c5-5.5,10.8-8.7,16.6-8.7c8.6,0,11,5.5,11,12.6v21.1c0,5.4,1.2,7.4,3.4,8.5v0.7h-13.8v-0.7c2.3-1.1,3.3-3.1,3.3-8.5V57.9
	c0-6.5-2.5-9.3-7.9-9.3c-4.8,0-9.6,2.7-12.6,4.9V76.6z"/>
<path class="st5" d="M188.6,81.4c-2.5,2.8-6.8,4.9-10.8,4.9c-6.1,0-9.1-3.6-9.1-11.2V47.3h-6.5v-2c5.2-2.1,9.5-5.8,11.7-12.9h1.9
	v11.9l12.1-0.8l-0.7,3.8h-11.3v26.6c0,5.7,1.6,8,6,8c1.8,0,4.1-0.3,6.4-1.3L188.6,81.4z"/>
<path class="st5" d="M203.8,76.6c0,5.4,1,7.4,3.3,8.5v0.7h-13.8v-0.7c2.3-1.1,3.4-3.1,3.4-8.5V34.9c0-4-1.8-6-3.6-6.8v-0.8l10.8-3.6
	v28c5-5.5,10.8-8.7,16.6-8.7c8.7,0,11,5.5,11,12.6v21.1c0,5.4,1.1,7.4,3.4,8.5v0.7h-13.8v-0.7c2.3-1.1,3.3-3.1,3.3-8.5V57.9
	c0-6.5-2.5-9.3-7.9-9.3c-4.8,0-9.6,2.8-12.6,4.9V76.6z"/>
<path class="st5" d="M259.4,86.8c-12.3,0-20.1-8.9-20.1-21.3c0-13.4,8.1-22.6,21.1-22.6c12.6,0,20.2,9.2,20.2,21.5
	C280.6,78,272,86.8,259.4,86.8z M260.5,84.6c7,0,12.2-6.9,12.2-18.7c0-12.7-5.4-20.8-13.5-20.8c-7.2,0-12.2,7.5-12.2,18.6
	C247,75.6,252.2,84.6,260.5,84.6z"/>
<path class="st5" d="M295.7,76.6c0,5.4,1.1,7.4,3.4,8.5v0.7h-13.9v-0.7c2.3-1.1,3.4-3.1,3.4-8.5V34.9c0-4-1.8-6-3.6-6.8v-0.8
	l10.8-3.6V76.6z"/>
<path class="st5" d="M323.8,86.8c-12.3,0-20.1-8.9-20.1-21.3c0-13.4,8.1-22.6,21.1-22.6c12.6,0,20.2,9.2,20.2,21.5
	C345,78,336.5,86.8,323.8,86.8z M325,84.6c7,0,12.2-6.9,12.2-18.7c0-12.7-5.4-20.8-13.5-20.8c-7.2,0-12.2,7.5-12.2,18.6
	C311.5,75.6,316.6,84.6,325,84.6z"/>
<path class="st5" d="M376.1,79.8c8.9,0,12.8,2.5,12.8,8.9c0,8.4-10.2,18-24.6,18c-9.8,0-15.3-4.4-15.3-10.5c0-4.7,3.8-8.9,8.9-10.5
	c-2.6-1.2-4.1-3.2-4.1-6c0-4.3,3.9-7.4,6.3-8.7c-5.5-2-9.2-6.6-9.2-13.2c0-8.5,7-14.8,17.1-14.8c3.7,0,7,0.9,9.6,2.6
	c1.5-4.1,4.3-6.7,7.8-6.7c2.8,0,4.5,1.8,4.5,4c0,2.2-1.3,3.8-3.7,3.8c-1.9,0-3.3-1.2-3.9-2.8c-1.3,0.2-2.5,1.2-3.4,2.6
	c3.1,2.5,4.8,6.1,4.8,10.7c0,8.8-7.2,14.9-17.2,14.9c-1.6,0-3.1-0.2-4.6-0.5c-1.4,1.5-2.4,3.1-2.4,4.6c0,2.5,1.7,3.7,5.7,3.7H376.1z
	 M364.5,86.7c-1.7,0-3.3-0.2-4.6-0.5c-2.8,1.8-4.7,4.6-4.7,8.1c0,5.9,4.9,9.2,11.9,9.2c8.9,0,16.1-4.4,16.1-11.7
	c0-3.7-2.4-5.1-7.4-5.1H364.5z M358.2,57c0,7.9,4,12.8,9.1,12.8c5.1,0,9.1-4.9,9.1-12.2c0-7-3.8-12.7-9.1-12.7S358.2,50,358.2,57z"
	/>
<path class="st5" d="M401.3,55.5c-2.5-5.5-4.2-8.8-7.4-10.9v-0.7h15.3v0.7c-3.2,2.2-2.4,6-0.2,11.4l9,21.7l6.9-19.2
	c2.4-6.9,2.5-11.9-0.7-13.9v-0.7h12.7v0.7c-3.2,1.7-5.5,5-8.9,13.7c0,0-3.9,10.3-9.8,25c-5.9,14.6-10.4,23.4-18.6,23.4
	c-3.6,0-6.4-1.5-8.3-3.6v-0.7c7.9-0.4,18.8-2.7,23.4-15.8L401.3,55.5z"/>
<g>
</g>
<g>
</g>
<g>
</g>
<g>
</g>
<g>
</g>
<g>
</g>
<g>
</g>
<g>
</g>
<g>
</g>
<g>
</g>
<g>
</g>
<g>
</g>
<g>
</g>
<g>
</g>
<g>
</g>
</svg>
