<svg xmlns="http://www.w3.org/2000/svg" xmlns:xlink="http://www.w3.org/1999/xlink" width="100" height="100" viewBox="0 0 100 100"><rect width="100%" height="100%" fill="#a235b5"></rect><g transform="translate(50 50) scale(0.69 0.69) rotate(0) translate(-50 -50)" style="fill:#ffffff"><svg fill="#ffffff" xmlns="http://www.w3.org/2000/svg" xmlns:xlink="http://www.w3.org/1999/xlink" version="1.1" x="0px" y="0px" viewBox="0 0 105 105" enable-background="new 0 0 105 105" xml:space="preserve"><path d="M51.584,52.389l-5.348,5.344l1.323,1.326l5.349-5.346h10.291l14.054-14.059c0.003-0.005,0.004-0.01,0.009-0.016l0.606-0.604  l0.026-0.653l0.667-0.037l4.633-4.628c0.209-0.208,0.401-0.427,0.581-0.649c0.221-0.127,0.384-0.342,0.439-0.604  c1.959-2.935,1.825-6.859-0.405-9.664l0.044-0.04l-0.654-0.656c-0.002,0-0.003-0.002-0.005-0.004s-0.004-0.003-0.005-0.005  l-0.66-0.658l-0.038,0.04c-1.446-1.152-3.228-1.783-5.107-1.783c-2.19,0-4.254,0.852-5.807,2.406L59.408,34.267l0.032,0.547  l-0.528-0.056l-2.301,2.304c0,0,0,0-0.001,0.001l-5.026,5.027V52.389z M62.425,51.84h-7.646l2.918-2.921l7.626,0.025L62.425,51.84z   M65.678,38.292C65.678,38.292,65.678,38.292,65.678,38.292L65.371,38.6l-0.028-7.624l5.151-5.149l0.023,7.626L65.678,38.292z   M66.723,39.89l7.621,0.025l-7.156,7.164l-7.625-0.024L66.723,39.89z M77.744,36.517l-1.657,0.092l-0.052,1.441l-7.448-0.025  l3.526-3.523c0.001-0.001,0.003-0.003,0.004-0.004l1.33-1.331l7.62,0.024L77.744,36.517z M82.725,31.33l-7.415-0.027l7.166-7.165  C84.045,26.255,84.128,29.135,82.725,31.33z M77.384,21.566c1.378,0,2.688,0.44,3.774,1.248l-8.756,8.754  c-0.001,0.001-0.002,0.001-0.003,0.002l-0.021,0.018l-0.02-7.626l0.538-0.54C74.098,22.224,75.693,21.566,77.384,21.566z   M59.604,36.711l1.827,0.189l-0.105-1.902l2.159-2.157l0.021,7.622l-5.272,5.273l-0.021-7.628L59.604,36.711z M56.349,39.974  l0.021,7.625l-2.917,2.922v-7.656L56.349,39.974z M49.429,43.721H20.342V41.85h29.087V43.721z M49.429,48.043H20.342v-1.868h29.087  V48.043z M49.429,52.373H20.342v-1.871h29.087V52.373z M43.793,56.695H20.342v-1.871h23.451V56.695z M97.861,10.174H7.142  c-2.564,0-4.642,2.077-4.642,4.641v56.987c0,2.564,2.077,4.645,4.642,4.645h35.812V91.82h-7.275v3.006h32.523V91.82H60.93V76.447  h36.932c2.56,0,4.639-2.08,4.639-4.645V14.815C102.5,12.251,100.421,10.174,97.861,10.174z M96.438,63.936H8.437V15.638h88.002  V63.936z"></path></svg></g></svg>